<mxfile modified="2022-08-24T10:52:55.686Z" host="app.diagrams.net" agent="5.0 (Windows NT 10.0; Win64; x64) AppleWebKit/537.36 (KHTML, like Gecko) Chrome/104.0.5112.102 Safari/537.36 Edg/104.0.1293.63" etag="vcaExP39MAOOf6Ig4i6Q" version="20.2.7" type="github">
  <diagram id="Ht1M8jgEwFfnCIfOTk4-" name="Page-1">
    <mxGraphModel dx="1202" dy="551" grid="1" gridSize="10" guides="1" tooltips="1" connect="1" arrows="1" fold="1" page="1" pageScale="1" pageWidth="827" pageHeight="1169" math="0" shadow="0">
      <root>
        <mxCell id="0" />
        <mxCell id="1" parent="0" />
        <mxCell id="UEzPUAAOIrF-is8g5C7q-2" value="AWS Cloud" style="points=[[0,0],[0.25,0],[0.5,0],[0.75,0],[1,0],[1,0.25],[1,0.5],[1,0.75],[1,1],[0.75,1],[0.5,1],[0.25,1],[0,1],[0,0.75],[0,0.5],[0,0.25]];outlineConnect=0;gradientColor=none;html=1;whiteSpace=wrap;fontSize=12;fontStyle=0;shape=mxgraph.aws4.group;grIcon=mxgraph.aws4.group_aws_cloud_alt;strokeColor=#232F3E;fillColor=none;verticalAlign=top;align=left;spacingLeft=30;fontColor=#232F3E;dashed=0;container=1;pointerEvents=0;collapsible=0;recursiveResize=0;" parent="1" vertex="1">
          <mxGeometry x="435.5" y="175" width="630" height="486" as="geometry" />
        </mxCell>
        <mxCell id="wPKVomGyp4dT0mw95mi7-12" value="2" style="rounded=1;whiteSpace=wrap;html=1;fillColor=#007CBD;strokeColor=none;fontColor=#FFFFFF;fontStyle=1;fontSize=22;" vertex="1" parent="UEzPUAAOIrF-is8g5C7q-2">
          <mxGeometry x="4.5" y="69" width="40" height="38" as="geometry" />
        </mxCell>
        <mxCell id="wPKVomGyp4dT0mw95mi7-20" value="" style="edgeStyle=orthogonalEdgeStyle;rounded=0;orthogonalLoop=1;jettySize=auto;html=1;" edge="1" parent="UEzPUAAOIrF-is8g5C7q-2" source="wPKVomGyp4dT0mw95mi7-15" target="wPKVomGyp4dT0mw95mi7-18">
          <mxGeometry relative="1" as="geometry" />
        </mxCell>
        <mxCell id="wPKVomGyp4dT0mw95mi7-15" value="AMI" style="outlineConnect=0;dashed=0;verticalLabelPosition=bottom;verticalAlign=top;align=center;html=1;shape=mxgraph.aws3.ami;fillColor=#F58534;gradientColor=none;" vertex="1" parent="UEzPUAAOIrF-is8g5C7q-2">
          <mxGeometry x="44.5" y="145" width="60" height="63" as="geometry" />
        </mxCell>
        <mxCell id="wPKVomGyp4dT0mw95mi7-27" style="edgeStyle=orthogonalEdgeStyle;rounded=0;orthogonalLoop=1;jettySize=auto;html=1;" edge="1" parent="UEzPUAAOIrF-is8g5C7q-2" source="wPKVomGyp4dT0mw95mi7-18" target="wPKVomGyp4dT0mw95mi7-22">
          <mxGeometry relative="1" as="geometry" />
        </mxCell>
        <mxCell id="wPKVomGyp4dT0mw95mi7-18" value="VM+Webserver+minikube" style="outlineConnect=0;dashed=0;verticalLabelPosition=bottom;verticalAlign=top;align=center;html=1;shape=mxgraph.aws3.ec2;fillColor=#F58534;gradientColor=none;" vertex="1" parent="UEzPUAAOIrF-is8g5C7q-2">
          <mxGeometry x="36.25" y="265" width="76.5" height="93" as="geometry" />
        </mxCell>
        <mxCell id="wPKVomGyp4dT0mw95mi7-22" value="Webserver &lt;br&gt;Log" style="sketch=0;points=[[0,0,0],[0.25,0,0],[0.5,0,0],[0.75,0,0],[1,0,0],[0,1,0],[0.25,1,0],[0.5,1,0],[0.75,1,0],[1,1,0],[0,0.25,0],[0,0.5,0],[0,0.75,0],[1,0.25,0],[1,0.5,0],[1,0.75,0]];outlineConnect=0;fontColor=#232F3E;gradientColor=#60A337;gradientDirection=north;fillColor=#277116;strokeColor=#ffffff;dashed=0;verticalLabelPosition=bottom;verticalAlign=top;align=center;html=1;fontSize=12;fontStyle=0;aspect=fixed;shape=mxgraph.aws4.resourceIcon;resIcon=mxgraph.aws4.s3;" vertex="1" parent="UEzPUAAOIrF-is8g5C7q-2">
          <mxGeometry x="554.5" y="204" width="78" height="78" as="geometry" />
        </mxCell>
        <mxCell id="wPKVomGyp4dT0mw95mi7-34" style="edgeStyle=orthogonalEdgeStyle;rounded=0;orthogonalLoop=1;jettySize=auto;html=1;shape=link;" edge="1" parent="UEzPUAAOIrF-is8g5C7q-2" source="wPKVomGyp4dT0mw95mi7-33">
          <mxGeometry relative="1" as="geometry">
            <mxPoint x="74.5" y="355" as="targetPoint" />
          </mxGeometry>
        </mxCell>
        <mxCell id="wPKVomGyp4dT0mw95mi7-33" value="&lt;span style=&quot;color: rgb(68, 68, 68); font-family: &amp;quot;Helvetica Neue&amp;quot;, Roboto, Arial, sans-serif; font-size: 14px; text-align: start; background-color: rgb(255, 255, 255);&quot;&gt;test ALB{https}&lt;/span&gt;" style="outlineConnect=0;dashed=0;verticalLabelPosition=bottom;verticalAlign=top;align=center;html=1;shape=mxgraph.aws3.application_load_balancer;fillColor=#F58534;gradientColor=none;" vertex="1" parent="UEzPUAAOIrF-is8g5C7q-2">
          <mxGeometry x="264.5" y="374" width="69" height="72" as="geometry" />
        </mxCell>
        <mxCell id="UEzPUAAOIrF-is8g5C7q-1" value="Pipeline" style="points=[[0,0],[0.25,0],[0.5,0],[0.75,0],[1,0],[1,0.25],[1,0.5],[1,0.75],[1,1],[0.75,1],[0.5,1],[0.25,1],[0,1],[0,0.75],[0,0.5],[0,0.25]];outlineConnect=0;gradientColor=none;html=1;whiteSpace=wrap;fontSize=12;fontStyle=0;shape=mxgraph.aws4.group;grIcon=mxgraph.aws4.group_corporate_data_center;strokeColor=#5A6C86;fillColor=none;verticalAlign=top;align=left;spacingLeft=30;fontColor=#5A6C86;dashed=0;container=1;pointerEvents=0;collapsible=0;recursiveResize=0;" parent="1" vertex="1">
          <mxGeometry x="11.5" y="175" width="424" height="486" as="geometry" />
        </mxCell>
        <mxCell id="wPKVomGyp4dT0mw95mi7-30" value="Master" style="outlineConnect=0;dashed=0;verticalLabelPosition=bottom;verticalAlign=top;align=center;html=1;shape=mxgraph.aws3.ec2;fillColor=#F58534;gradientColor=none;" vertex="1" parent="UEzPUAAOIrF-is8g5C7q-1">
          <mxGeometry x="238.5" y="55" width="76.5" height="93" as="geometry" />
        </mxCell>
        <mxCell id="wPKVomGyp4dT0mw95mi7-2" value="Repo&lt;br&gt;" style="shape=image;html=1;verticalAlign=top;verticalLabelPosition=bottom;labelBackgroundColor=#ffffff;imageAspect=0;aspect=fixed;image=https://cdn1.iconfinder.com/data/icons/picons-social/57/github_rounded-128.png" vertex="1" parent="UEzPUAAOIrF-is8g5C7q-1">
          <mxGeometry x="30.5" y="335" width="80" height="80" as="geometry" />
        </mxCell>
        <mxCell id="UEzPUAAOIrF-is8g5C7q-5" value="" style="whiteSpace=wrap;html=1;dashed=0;fontColor=#AAB7B8;fontStyle=0;align=left;verticalAlign=top;strokeColor=#248814;fillColor=none;gradientColor=none;spacingLeft=30;container=1;pointerEvents=0;collapsible=0;recursiveResize=0;" parent="1" vertex="1">
          <mxGeometry x="175.5" y="281" width="229.08999999999997" height="310" as="geometry" />
        </mxCell>
        <mxCell id="wPKVomGyp4dT0mw95mi7-5" value="Jenkins" style="shape=image;verticalLabelPosition=bottom;labelBackgroundColor=default;verticalAlign=top;aspect=fixed;imageAspect=0;image=data:image/png,iVBORw0KGgoAAAANSUhEUgAAAFAAAABvCAMAAABM47fnAAAA/FBMVEX////w1rfTODMzUGEAAABta22BsMTYOTT53r40UmT35M1JcosyTl4jHyAAHR7cOjTk4eDwPTrc2djv7u4AAAoJAAAUHh8iGxpFa4P96tL29vaFtssrOELn5+e6ubloZ2eYh3V/fn7dxam6NDAsICF8KiggFhMXEhP03sMvLS25pY5fVUuBc2RdXFxMSkuPjo6uMi6OLSqcm5ulk39vKCf7Pzw+IiKpqKgvRFHLyso+ODM7Ojrk075xaWFvY1bOt51JIyOhMC1hJiVUJCQAFRknLTN4oLISGCDAsqDVxbFSSkKuoJE5FhktEhM8XnNDXmdoiZg+SlBXcHwZLTo2FyS5AAAMoUlEQVRogaWaCVvazBaAJZ6YoEwSQhZBtrCNARIUVLYKKlCV3mv7tf//v9wzkwQJROrnncenypI3Zz9nJj06+sTKjYc90Z9Op37F6Y9zn7nkEG3oAZiUUgMXpSaA3y99HTf2KFBCDJh0q9Vqt0MCaOWLyLILJkGc++M0H65vL10XKIX+F3C6j+o5hALiTjcrnz99WQMF79/iShUwnXGpD/cR7hJXCtflZf51bZjTwr/i9QAcvVSemi/5AJaKLXkA1P0X/tZc8MelcgXWXLwdGie2gX5exjJAv6Q7HnQ/wIVE95O8MUC5NBZFUmW8RBwjVsEUP8XLmWZZK1dEf3aIh865pzD8DNCBfm7siZ57kHeJAbS24ROOKaA/ei6GM/Pv+8W7wPy37v09pc7fgT2TABBfhNd86I/T/Etn3ZbjAr4CsKSEv3m64AMBr6zlNKjmL0NZJmAAtOPAbrddXeN3/2bFimnTYWncd0QyC9Q8/UZhUm0P5rteTsly26B/ScExEFfXe15FFN1OKOAEBjJeneQZeW7QwzqLFMa6iDgE3nPG5QvyPvS13AX9IBDdponBIlXOke/XH/NSqdphI2qYI8NKAAy9IHd3jRcX0T4YOGOgesirQG334j3yvJaSO/4hYBnccgj0JruX5zu773zrymjEA7ycT6eRxn5nJ5JP85HytUnw0WkeUgeBOUrJBjjtxoGY16+Re2gtvMV9FWvOh3FTMm2LuMPQydPBHjA/Cd6TOzOZAy9rkBrA9IMCkSNUubLo0GcNHYHVOFDGjjIPQhJrK1O+1m5XjS4mS7JbCi5VhFuL2BQAv4PVMAaUq+15ak4CT8nEZf9geTDmbcMyE9PPo0r99soicP/jpYvEyiQOBL5Cw7bZH/NOp8qkbSqQEIs9UB5vs4TQF9bOX4CIz/E4nM9cMonMIM+gzYqDzNjCjQXlXd4YrOZttq7AS/7lvvot36Hec7xescvld6FdmEfCCuqDBTuzSYFYd9ls9nG5zr9i0bRrbSBG9XAOB7EjDwxVEKxdxzimIiCwafzIv6SM7qSTAljvpV5M3ja4gbMQKD0q8Rqhg3J9m81KTdT4cj6RMbxSyQVwi1gFt8Zqx39QQvXJirWrKW2gfIJ0jRLK85ksdw5JFzZ+eWZgdsqdJwQKgrLdrsqg1FE+Qbpa3udTtdlh2TajBI8d2W1KyFOvLdA2QN9aoMLsPhbFxnnQGQiMJKzyfIFHBhSEBt2MEWMuIHtTWhg//mq6wBpybQasnM2hznnStWJGoePRh9ssNwR6ixzmpWRs0DLLEiCsU8tVKoSLmL2AVwLlKhAQiXfPvETJ8/ZHQKwH1ZkL7gAjPdWW1ws1uFRtWjQA9k0lmw3fleoKncxlNM/93uyRCiKpNiFupzpniTNAIxpNKZQQ0yxIQJclXSS3+qhQwP3DJGEqlKvMfnKwUrUBgSrmyVUEVB9ohfE05hJV2BCvGgqWnG/5nbkLg0VO4egxWc9m3dlg7hoGYMCul5srpWuLN/0hNLIbAdn70hVWj71B7vRyjvPDwGXiU6Mzx9+sgsHTuyyo8xiBleXT7TaQIRV43QfWjBqqOq/O1hN3VusMahjVs+VGY+ZR6LFCjXVQFeLEhjGIRrmtVsWIzIaBQbmDoPHOE9SbpceDRogLiMAmlrEAKM/eexUWGNZI5U1hlDvLxy2g9LhEI2Jlze4C0Rr0W6hzbWuAwB6MXumwteY3MB6k2GWszvbNxq7GTHijGrpZrm7ljjygBm8tEz7PYpeMAQXWCnrwdCvtAvEjNyoqcmdr+pJl7J3Y/ng2dagSv1Il5vBIXDZv93nqDZbayM+TxHqGMU2sm5hy6gO62V8+7plQkNSFZec3yUJnSTywbaLcbMuoPmGVnSr7QLX+YBEWOVG8kEltZ4xIzaBVPCe28hTTaykeEeVqNwqFG4XYLWK8vqdfMGa/46qE2qOzs7OVbd0JGyEx3Cp7QEm4VqzWKn2O3fRHtN3BKdAgg1pUFrqGgfv81XFAJHVpA7S8XaB6dae0Vm/41fMWgcnglcVxez1Zu8SgnepgUJ3hpgVxlqK00pxIrIiIEnpHmHlb2SgsFNvOnPH1ZttTD2Ou0TGW1hJLEKGUxaAx6U4s5enq0SKMWGwRpR5K00Qb+lvZg63LahXPwvU2auEOWxuPxeVVVnhcIHI9GOD+B/vng3Cbvb22Munzs7NMywqrtnqDXvaW1yFQ5eK9BbTzt+NMekRaQ6xwzn+xJ97eYhtautV5bT4xrrHES1jdR8cZJBZJIwQuMA4dGgQn8+1GvPN0JnOMKz0yQRy6T7cqW1n1RsGyaizrYdNVimm87VmaRhI2oH/Uhzv+qm5ZhFuZ447DlT4uUpzLwkhVb6XmU1YgT491/k4DgeyuVqikxHK5DBZ7Jd2g0bm658cbXIh8B9avG82s2mxIvGdIDwFwFTkFq42OLcWqB8AV90Qcx5HFmyiX1PpNI6s+LILXEZDchQLiDJY7KlAeN9hhbLTv+R4O12ixKR9qXblZwIOAFpUkyR6xjzNW2EkxrtmU6C25V+oKy6XzBN5xprXJdulmuRSHPlgPN9fXTSu4X1QVpQWfwHrAJZYeCEGVk4BpJUwFSXhYjnVN0/o+Lf4cAeGfrhrR7Qjv9GxUErjOrTdmwwRgsakG+v4X6FArFUolHU4uLr7bK7Rh2go7qXSlBJM2CW2g2BiFb4lGXLISKVzDzxOCfnQAW9vJycnFd5N/GKYaTrHBoO1QHujqgrR2vZIOfyuPwtWNDb8uLn6BU8jpRyWDAX+il9PFTR9QzGE0YDMbodOZzjFgMdIZa7NFvl8g5B+TTQf6MwK/U65xmCZos2jMnoZWIMzP6S1ephVaIF1crVqMhxQQj3Rd/3NxcjFlUZPZaHwXzEp8uuGxrfLY3vbKqBXZNJ0mvzmPiaj5lfEItSdMwKIlbFwyft/1sFDE6oGxve2VEYlsmi6aJwEQRewVjoY/L04I/4hEGj9s7X1w5OSRc4fVYdsrmXcgsYu/IhFtHA9+c4/gPa1AYybg1n4PuGVxqB3FgavNy5Hdav0TWPEXbpqcX9wjGNVcY0lVG3S6tfEZAktovMsq7pXiBohFh7TM4i9U/IL4hemJmwl0WLBKe71oEDO2N/NpI4jtj4CIzBRt25z+Prn4DeXV7xUXsKhcCdd3ioXNhkIvttljflGt1vm7m9NxIEcSpvmvFvnHRsen0xmbNC2LYlnPlRzYeJn7BZVW1QV927h5hEYPbZjmi6tYJGwGQBeNisUitlBimeD3eUD3oBJX2qqjVzLvMtkrDJsz7C4jvHi1WmEzJjaJFg42+ENs6G22eBDbkObwS8Lju5vTLN9sFKLFHlCASYnLF6Hs8UCrhWKyFz6rL1p/yFBO/AEBmvGOuTkEFvlFJlC/0htiEcyFxz250rg/XaXf3mw0WQHEwlHOJ4HxxhDf1peBNFiR5cC3NF7z9twv7R8b5TSRddsVixPRLRWcKKBzYJZ2icQOgZk37DBnf/YOOzjQYcAR2yuW2XHk2Kk4Q4aa7h6OIBGzOXQKtvq3P0lPTXJ67w9OFkXK9xCI0PVSYBARdk/eyyYG4lZg/0k6bMzp/WccBUYtF+sKHb7bJNfff8jiY43dCuVi0qlWTh8+p1lto+haH0tPv+KJvXLhqFSORyJbHo0BR2Yy0EBgxmb285xQQvyll/ePrCoI3FI5k3TYmNPLHEhY3HgVDeu3rpVKJeyu+we8FTMmYWbrpGMbCBxo9jWt4ue0YCHV3/96hWa2gWkjIW5y+pgBjwl1SiWP9BzRm7rTvo4C7ptcpKu3rfqVfk6IGwSaHGhPRcxJE0xvqJe0cQ8Szsh7JmkVMxtk+k/CI52CPrYzWH1WmMlIyo3B9T1/igmfcESugWnb9ipCpovTJKDujrD8EDt8DDDui57vOcPEo9hcf4pbLjuSckT2c7mA1sf9AFabTz0/whsyJFmNeElOMAsDTp0hfObpUYT0gWL5XBVHmf2zUA7sayX30An7PtIDzrSTnjnpmsci8F9IyBZ/rAxgJ2SzrlUQ2Iv1pM+tQi4HCQfzuib2NEyXrzwRxpq5L4euOY6G0X3wucdHqxdr38HSNEfE1HX/8jQqeemwH9olredpiaXgE6vg7jsTe4CHzW/6l8dbHyxnPxIL+pBUXDA/+zA4vsp7jYeXZpyOvK9ojOKY7p7tsSC64694hC9vN3ByWJsTXPXpVYZpf0scrPglvUy/FDLhAjYtuTjhlMfj8rDfq0xNHJ3+D2DfZcOXaZrBMx+T/TX9UsREq1Aq9x3Pd3Hgc/l/aBkewP0PMvaiaJYAa0oAAAAASUVORK5CYII=;" vertex="1" parent="UEzPUAAOIrF-is8g5C7q-5">
          <mxGeometry x="9.809999999999999" y="39" width="58.38" height="81" as="geometry" />
        </mxCell>
        <mxCell id="wPKVomGyp4dT0mw95mi7-7" value="" style="shape=image;verticalLabelPosition=bottom;labelBackgroundColor=default;verticalAlign=top;aspect=fixed;imageAspect=0;image=data:image/png,iVBORw0KGgoAAAANSUhEUgAAALcAAAECCAMAAACLwLbfAAAAflBMVEX///8CqO8AAAC/v79/f38/Pz+A0/fZ8v2F1fefn5/v7+/Pz8/f39/f9P1fX19vb28QEBAfHx9PT08vLy+Pj4+vr68ptfHQ7/zw+v7A6fsdsfBAvfLp+P4PrO9xzvaX2/m15vtTxPSm4fqT2vjI7Pt1z/YmtPFPwvRjyfU5u/L+op4xAAAHiklEQVR4nO2ci3abOBCGJZCccCl3J2laN5e2afv+L7gCCdAFI+xYIM7Of3brGBH0If+aGREwQiAQCAQCgUAg0Kf08nNrgut0jx9et2a4RvcY4293W1NcrpYb4x9PW3NcKs6NTy9bg1wowY3xw9etUS7SwI3x25etYS6QxI1Pv/djc5kb4+f3rXmWSuXG+N/j1kTLpHNj/Pf71kxLZHLj0/3WUAs0wY3xh/82n+Tegc3PcHtv87Pc+OR1hXueG/tT4T6a+XCO25sK92Dmw3luTyrcAxtBLVDYuL2ocA8tiBooHv/ZwD2ocA98BNV8+P5sJd+6wj30I/gqb336fbKaZdsK9zCA/FECxZc365BvWuEeJBA1UHx9sJJvmPplbvysBooXu803S/0HlUMNFEtsvlGFe9BB1ECxwObbVLgGNz4d9mBzk9sIFC9Ws2yQ+qe49dS/wOYfv7zg1gPF3R/rkP/2g1sPFHab/1nVK2e5jTWC1eYPa8byGW499T/9sIB/rFhrzXLrgcJm8+f1RtzCrad+i80fVvO4jdtYI/yctfk3f7j11D9v8x8eceup/+7bzL6vHnEbqX/uHNeZmwu5teJpbsd1LL6YW0n9s/utUtdewC2l/tndntcIhpdwj6l8fq81lkCXceO7JdynFQbcBTc+7JT7eafc+HWn3G875cbOZ6Yj7tedcjsvCx1xP+yU27nBXXG7vvTmivt1p9yu/+Tmitt1TQjcwA3cwA3cwA3cwA3cwA3cwA3cwA3cwA3cwA3cwA3cwA3cwA3cwA3cwA3cwL2c+9X6lIaf3Lbb1/3ltj2l4ef9EJ1mn9JwfVPyJ7hnn9Lw836fQedsfnKM/Vnuczb39D48WZM2d/7k1Oe5p2zu/ns7bsFtPEH91zn2jbjZBB2/nGGVR6VvxY3Q95/t40int/dVnlG7HXeru9WekL4t93oC7nVlffhWlUff67fgGXMvuZesXvzktq9efOVGT3/3yY3Q49zDtx5zM5t/7JMboXurzf3kRt9tNveU22pzb7ktNveYe9bmXnPP2Nxv7vM295373Hfi+c+Nng4TNt8BN0JfTJvvghuhX/pXP+6E27D5brg1m++HW7X5nrhlm++Le7T53rh7m++OW3z14w65u+vzu+RG6MXvby4HgUAgEAgEAoFAIBDorBJK25eI5kYTqSP+Q9cYE8pk7rWRwiBoX0hAjSYSkP4HiuI6aGXutZGWcKdhgqIgiNIkDFeFm5HEHebMCK01worSKmy5o4xWMQpJJJ0Y261qYuYeEkdsexM3GUm35G46J+QoLdrXhm3rlHWNA3fUbaxjRIOCtQVBu3cRb8AdCOfGrPMmKNimmjXEDLXIj5VgHrhL5p60ZKdF2e+EjDtL4zI4bsgt3rL/izxBwt9E5w4C5vGMNdEg79/Sfiasyo0Qx0uqziAIVezfMpnjJh038YO7CmqSdW/TqA6qOe7cJ27KENq3MepxJW42HZmHkwQVzNpxqXLXQbQhdxaUNOj8XdOiiycSN0Pls4BHmSIeuIOSNa0eCKU8H1cljSrahu+AZjHbFvGGLs+nGS1KmrGQQ8u6Ypx5F+tZSGT/rR5OPq3OJzsUcK8rEq6e4kG7Vngk2dYMFyvhxdmKHVJN5HhN7gvX5h7qWElVcu1hHADOd6jp4vLOE+6L6ztfuC9dMPrCzcrYaw7jhnGmw77IiI/8+s6lF3i25mbkxTUI23OzteM+ucmIkEQ5pcI3uVKvpk3FF2511SQmN+Hq+8i5+ep8SAxR29ytkpKsujU3VadqPfQa5/J2anDzK18Bv3ibyIehIhlT8YshvfJa6Ry3QtdKgItrs71ynVtMER5LI/UQRTJyl2nVvdyau9G5CzR2Ooro3Bl/0+WuRD9GLR3iqhBg5zZje4QmNocat0ClU+fYH0PZfGvuuK7IMWwViX66KSSGs8ibkE0vWqYat9g3kc4hIGESRsU44DJ3cXkZN8VdTQ4C76izInd3qVQCEveR/5jLg8DJpCJ95C7IVQtUg1t0q0+WaOxT+rinuHl8FAUO5+vXQfXQ18CdX7msFh02IVcjRjvQl1wSmPEJKc1EOS3O1wfySuem11hE7tCQflVkBEtmuVPJxKgf/J6bDKekfg634zZywchtzgi5OVNb+btSrAHHs1A/h5txD+V3HDY8ZWfLuMXrMJBTB3fH3WfjtNJbbNxUPe01uYusR0oKo9HGLT6WYbq55s5EBReG0lUIM9dZuUVpMkwP19xTF1WN0mIBd1/T9NGdv6NE1hgH3XCLVBMlCpglDorc0ju8PMPnkptH20wHs+QdNaKc43PPTc5wn83zlXxEzmfe/eGeW/R5HMEsdZWSMfnSo5Ame+qcm0+xgjWlRxHfOrChjo3CkJDKqGNFhdJIp1s07Chd+VPwPxluEE+s6walIiyNQ0jrBjfcE30qC4NexjpNnppH4xC5c26zTw5mWxcrU5Poh6DOuaW1eBlFEpjtOoQyNY/qx1ZkN+FOeQ478zeGsLu1o86O/Y7DrzWiKGW5MBkP0zcflaNGeX/RsSJigKIhc4JAIBAIBAKBQCAQCAQCgf6H+g+yrnNMjljqOQAAAABJRU5ErkJggg==;" vertex="1" parent="UEzPUAAOIrF-is8g5C7q-5">
          <mxGeometry x="164.5" y="29" width="58.87" height="83" as="geometry" />
        </mxCell>
        <mxCell id="wPKVomGyp4dT0mw95mi7-11" value="" style="edgeStyle=orthogonalEdgeStyle;rounded=0;orthogonalLoop=1;jettySize=auto;html=1;" edge="1" parent="UEzPUAAOIrF-is8g5C7q-5" source="wPKVomGyp4dT0mw95mi7-8" target="wPKVomGyp4dT0mw95mi7-7">
          <mxGeometry relative="1" as="geometry" />
        </mxCell>
        <mxCell id="wPKVomGyp4dT0mw95mi7-8" value="" style="shape=image;verticalLabelPosition=bottom;labelBackgroundColor=default;verticalAlign=top;aspect=fixed;imageAspect=0;image=data:image/png,iVBORw0KGgoAAAANSUhEUgAAAOEAAADgCAMAAADCMfHtAAAA6lBMVEX///9cTuUAAABAQLJLOuNPPuTc2fn6+f5XSOQ6OrCXj+2WltBxccOOhew2NrCYmJhdXV2Pj4/39/c+Pj7u7u6JiYm1tbVMTEzNzc0eHh6qqqoODg4rKyvCwsKhoaGMjIx1dXVVVVWBgYFvb2/f398xMTFTQ+TU1NQ4ODju7fwbGxtmZmYpKawwMK67u7vGwvV0aejW0/jKxvazrvLk4vqqpPBwZOiGfeuAduq8uPNFRUWVje1iVOZoXOejne/j4/JZWbuNjcynp9jIyOZISLVoaMCzs93T0+tkZL7BweOdndRBLuKJgOs6JOIilRkXAAAIeElEQVR4nO2bC3eaSBSAx1ET0zY+EHyjiCjGRNu06Svdvl/bbff//529MwMKCGoUF2fO/c5pigiT+8lcZrgZCUEQBEEQBEEQBEEQBEEQBEEQBEEQBEF25TzrAI7Onw9ZR3BsLou5p1nHcFwuS7nis7OsozgmYJgrFS8VTkdmyBxfZB3I0RCGudwk9zzrUI6Eb5iDdLzLOpijsDLMlQrvVEzHgKGi6RgyhHT86zbriNImYgjp+OYq65jSZc0Q0vGRUum4bghddfI267BSJM4Quup7ddIx3hC66mtV0jHBkDl+UCMdEw0hHUtKTOQ2GOZK77KOLg02Gj4i5OqgrvoxrTAPYJvhbWH/kePjp88pRrov2wzPisVX+5UAzj/fzB+nHO0+bDeEu+qfPUaOL/NyviyJIXvmePnAdPz6bZ7PS2TISgAPqch9/H5zkZfMMPeAihwkIPeTzZCVAHZKxx/lcj4vpSG8nrzc2t5PnoCyGrISwOaJ3McnfgeV1ZCVAJIrcqsElNkQRo5HCen446KczytgCLtLcRW5n5/m+SiyGkI6vo+m49WTSAeV3BC6aigdzx/Pox30dAxfFpIVkw15Oi4ncr/y6x30dAzJ2bMEh82GrAQgnqviEvCkDAl5+tdkH0NWkYPL+DguAU/MELpqMbarbjPMFcDwSbLgCRmSq8u4dFTJEExexQx8ShkS8jYXTUfVDMn5h0g6KmcI6fg6lI4KGhJy+z74PKiiIaRjaaK4IaSj31VVNSTk7o1wVNeQpeNEcUNCXkxKihuS80eFidqGkI7PLhU3BEflDYGzguqGV8klgK2G5fLXrMPfiedJJYAthhc3MlxBwYv4EsBGw4ubJzItyDl/F1+RSzacf/uZddC7cisWud/FpmOSYXn+I+u4d+esMBE1/OdrJYAkw4ubU1iCsTMwHvqratcrcnGGFzffZUpAb8QviFW1V5cRxxjD+Tc5RogVYk7jL+OLVOTWDKVKQA9/1ubX8J8G0zFiCAko4XLG1by0+EqkY6AiFzKEBDyFZWwPJjDz9lfVXr32HYOG8iWgR+jZolQU6XjrpePKsDz/knWk+xJ5evLXRomKnG8oZwJ6rD0femujeIFcGF7M/5YyAT3Wn4BLhUuejndvitzw5tuvrIM8iLhnfH9t1G0JDL//k3GEhxJfxfDWRp0TBb4MnlSnUefLw4mVqFJxt6WKJ8+GWltposS3FTdWE39Ln4Rkh3qp9KCh/KCh/KCh/KCh/KCh/KCh/KCh/Nz93vCVEyUMo6tqFTSMrKpV0pCQF6X4BSfqGLJlfHFdVSFDvqpWcUNIx/W1UYoZilW1ahuurY1SzzC6NkpFw/DaKDUNg1+sVdWQnPvfVlTWcLk2SmFDQp6yiZzShnxtlOKG5OrPv4obwsihvCGCIAiCyIGmiX8+Dt/W+DtawjlyQS1C2tbq9WwEP1zqmJTSYUYxpUvbJqRuE9d04PqZLplauqlpDTK+13WH6Gy3S3TYNrOOdF96I8cZD0zaposW7VGtDtfOcqjeA3Ni0i5cY0pHA9g7zTrUPRlD7NSAjanVoS78N9SqVd0zvG6SPmUdeUBJg2Yd6p60LY1MjVYXLpZ2Tak2tYi1NKxekwUYtogxk9gQTKYDY6z3Rprm0lbdIqMhGNbHbsu1epoNhiYxqFaR1XAKPbRZa1E6thuU9kjTJvY1GLptSD+9R2lHGFJqZx3qYfCxT9ODu3S2y9sDvVRfP0kl7G7WERwbRaY36aLBNEHlz2XR7MLNqcvuY1mzaMRw8AytSj3u04jxMGY0hkOn3LVlS6NUgjyIcZxh9bA2tVVLtXSiPIRjGLqigy7MRaWVTpSH0D5CL23wRk5litCvcPo9FtTUe9U4rM0Oa+vk5gj1FHqnjySG+gN6mRYe2+MMtZ2G/9DM+CER7EDIsGXx9Gxb3o3CNAYDG36fPqAaf2FAuDo8WBGnY9x3edrNRmIUrRg1MRrCYQPD4aFW7vmenu2u2uNNGNDEwhgYLC3cypC1NGSn6AuLpc2scxxDvRm9q1bYpkts+OkQVtGgjmbxm0mVBhizD30aumexj8gIvG5qy/Ycrz32dlurdJfH6OZwuZ3inGhlqHUDEdE629VnWyMqPPlwblERZC14LJ35DS1xSPhDoF3NN7S89gy6CecIhtfhX9HxDQWLoFSLLMIH96PXUAuey2n6hgJzi2E/fUNdtGybplDphQ0rQcMODO5Vu9KAoV30bLjiA8sWncyybcsiRBzZtmuGSEZW7goY9rcYXqdvyG+EPH+Iwzf1gOHYDEw670MTFtGJeZoF76UtYcu3xUzACBjWW6s0rTYc3d9u11q6y7Mlvar00tBmG02xc+zJ+oYLttMznEUeQEz/4wgbilO9Y4ZezL4hb0JY1fiZYkY7FB9dMJI0DXkU3iPBtReGCHMgdgrDSrQBN96QH+0/Q/EXbd/Qm5Vzw7HYFoZu4I1jGQ7dFuAOQ4aRMCM48YaVoCFvp+cbkoBIL2jY+h8Mg2wzdFqcjqqGi9DoqaBhJ3KweobRg6UxjJRXEg3FaNesDQY1S03Dxiq6TffSeuTUbA3t4Ie+zbDin5VoKE7Vwr8kW0MR0nLCYuqbDPk1nK421w3FRKC6emhiA322huJa0GGt3zdG9eCzRYyhmKpZ5mLg1ezWDP1SV9UaeeOKk7Vh9OnJ2mSo0QjrhpHnK57iGRtq4TL4eJOhyNqNhpFD+AQ0E0Pey8Sjiha6itPYiJZ/8r73jzPssCFdVp6CswLxh+RQe/y8WYwhfyO9P3x0gnVSp1LttdvtcbXCbzSkxauo3pv8xerRu9OctXujhgYnAVzLDR8BPdWqs+au+3pME2bghcZ/kRN4I81aFIIgCIIgCIIgCIIgCIIgCIIgCIIgivMfKW3MkNLFeuoAAAAASUVORK5CYII=;" vertex="1" parent="UEzPUAAOIrF-is8g5C7q-5">
          <mxGeometry x="158.77999999999997" y="159" width="70.31" height="70" as="geometry" />
        </mxCell>
        <mxCell id="-QjtrjUzRDEMRZ5MF8oH-9" value="1" style="rounded=1;whiteSpace=wrap;html=1;fillColor=#007CBD;strokeColor=none;fontColor=#FFFFFF;fontStyle=1;fontSize=22;" parent="1" vertex="1">
          <mxGeometry x="122" y="244" width="40" height="38" as="geometry" />
        </mxCell>
        <mxCell id="-QjtrjUzRDEMRZ5MF8oH-47" value="Assignment" style="text;html=1;resizable=0;points=[];autosize=1;align=left;verticalAlign=top;spacingTop=-4;fontSize=30;fontStyle=1" parent="1" vertex="1">
          <mxGeometry x="12" y="65.5" width="200" height="40" as="geometry" />
        </mxCell>
        <mxCell id="-QjtrjUzRDEMRZ5MF8oH-48" value="Architecture" style="text;html=1;resizable=0;points=[];autosize=1;align=left;verticalAlign=top;spacingTop=-4;fontSize=16" parent="1" vertex="1">
          <mxGeometry x="12" y="115.5" width="110" height="30" as="geometry" />
        </mxCell>
        <mxCell id="SCVMTBWpLvtzJIhz15lM-1" value="" style="line;strokeWidth=2;html=1;fontSize=14;" parent="1" vertex="1">
          <mxGeometry x="8" y="140.5" width="1060" height="10" as="geometry" />
        </mxCell>
        <mxCell id="wPKVomGyp4dT0mw95mi7-4" value="" style="edgeStyle=orthogonalEdgeStyle;rounded=0;orthogonalLoop=1;jettySize=auto;html=1;" edge="1" parent="1" target="wPKVomGyp4dT0mw95mi7-2">
          <mxGeometry relative="1" as="geometry">
            <mxPoint x="358" y="400.5" as="sourcePoint" />
            <Array as="points">
              <mxPoint x="216" y="401" />
            </Array>
          </mxGeometry>
        </mxCell>
        <mxCell id="wPKVomGyp4dT0mw95mi7-17" value="" style="edgeStyle=orthogonalEdgeStyle;rounded=0;orthogonalLoop=1;jettySize=auto;html=1;" edge="1" parent="1" source="wPKVomGyp4dT0mw95mi7-7" target="wPKVomGyp4dT0mw95mi7-15">
          <mxGeometry relative="1" as="geometry" />
        </mxCell>
        <mxCell id="wPKVomGyp4dT0mw95mi7-19" value="" style="edgeStyle=orthogonalEdgeStyle;rounded=0;orthogonalLoop=1;jettySize=auto;html=1;" edge="1" parent="1" source="wPKVomGyp4dT0mw95mi7-8" target="wPKVomGyp4dT0mw95mi7-18">
          <mxGeometry relative="1" as="geometry" />
        </mxCell>
        <mxCell id="wPKVomGyp4dT0mw95mi7-14" value="&lt;span style=&quot;color: rgb(22, 25, 31); font-family: &amp;quot;Amazon Ember&amp;quot;, &amp;quot;Helvetica Neue&amp;quot;, Roboto, Arial, sans-serif; font-size: 14px; text-align: left; background-color: rgb(255, 255, 255);&quot;&gt;10.0.0.0/16&lt;/span&gt;" style="outlineConnect=0;dashed=0;verticalLabelPosition=bottom;verticalAlign=top;align=center;html=1;shape=mxgraph.aws3.virtual_private_cloud;fillColor=#F58534;gradientColor=none;" vertex="1" parent="1">
          <mxGeometry x="480" y="661" width="79.5" height="54" as="geometry" />
        </mxCell>
        <mxCell id="wPKVomGyp4dT0mw95mi7-38" style="edgeStyle=orthogonalEdgeStyle;rounded=0;orthogonalLoop=1;jettySize=auto;html=1;" edge="1" parent="1" source="wPKVomGyp4dT0mw95mi7-35" target="wPKVomGyp4dT0mw95mi7-33">
          <mxGeometry relative="1" as="geometry" />
        </mxCell>
        <mxCell id="wPKVomGyp4dT0mw95mi7-35" value="&lt;span style=&quot;color: rgb(68, 68, 68); font-family: &amp;quot;Helvetica Neue&amp;quot;, Roboto, Arial, sans-serif; font-size: 14px; text-align: start; background-color: rgb(255, 255, 255);&quot;&gt;https://testalb-140907780.eu-west-2.elb.amazonaws.com&lt;/span&gt;" style="shape=mxgraph.cisco.computers_and_peripherals.web_browser;html=1;pointerEvents=1;dashed=0;fillColor=#036897;strokeColor=#ffffff;strokeWidth=2;verticalLabelPosition=bottom;verticalAlign=top;align=center;outlineConnect=0;" vertex="1" parent="1">
          <mxGeometry x="840" y="700" width="62" height="64" as="geometry" />
        </mxCell>
      </root>
    </mxGraphModel>
  </diagram>
</mxfile>
